# xmcd
#
# Track frame offsets:
# 150
# 16417
# 30539
# 45164
# 61649
# 77046
# 92398
# 111110
# 125907
# 139039
#
# Disc length: 2131 seconds
#
#
# Revision: 0
# Processed by: cddbd v1.5.1PL2 Copyright (c) Steve Scherf et al.
# Submitted via: FreeRIP 2.942 
#
DISCID=7108510a
DTITLE=Coolidge, Rita - It's Only Love
DYEAR=1975
DGENRE=Blues
TTITLE0=Born To Love Me
TTITLE1=I Wanted It All
TTITLE2=Keep The Candle Burning
TTITLE3=Don't Let Love Pass You By
TTITLE4=It's Only Love
TTITLE5=Star
TTITLE6=Late Again
TTITLE7=My Rock And Roll Man
TTITLE8=Mean To Me
TTITLE9=Am I Blue
EXTD=A and M Records
EXTT0=
EXTT1=
EXTT2=
EXTT3=
EXTT4=
EXTT5=
EXTT6=
EXTT7=
EXTT8=
EXTT9=
PLAYORDER=
